PathFileType	4	(X/Y/Z)	S1_nor_med_right & left.trc
DataRate	CameraRate	NumFrames	NumMarkers	Units	OrigDataRate	OrigDataStartFrame	OrigNumFrames
250.00	250.00	10	18	mm	250.00	10496	16793
Frame#	Time	c7	r_should	l_should	clavicle	r_upa	r_elb_l	r_elb_m	r_low	r_wri_l	r_wri_m	r_met	l_upa	l_elb_l	l_elb_m	l_low	l_wri_l	l_wri_m	l_met
	X1	Y1	Z1	X2	Y2	Z2	X3	Y3	Z3	X4	Y4	Z4	X5	Y5	Z5	X6	Y6	Z6	X7	Y7	Z7	X8	Y8	Z8	X9	Y9	Z9	X10	Y10	Z10	X11	Y11	Z11	X12	Y12	Z12	X13	Y13	Z13	X14	Y14	Z14	X15	Y15	Z15	X16	Y16	Z16	X17	Y17	Z17	X18	Y18	Z18
10496	41.98000	907.18317	1420.85852	76.06550	983.08948	1355.87231	259.13333	952.04590	1337.51782	-114.80175	1035.34363	1291.41418	67.34454	981.82703	1143.23096	309.05588	1003.73450	1041.60303	314.28528	923.35162	1025.50623	248.16028	957.64453	912.64429	330.92310	1035.31519	822.09442	297.82004	967.26575	806.69147	317.94055	1070.58105	745.16998	314.62915	945.78406	1110.20996	-130.78520	949.78436	1029.06018	-141.67711	924.23761	1004.32977	-43.88393	954.06976	880.70105	-111.12534	1039.39355	817.05414	-137.94611	1007.29059	794.32379	-78.01495	1047.47974	750.17401	-163.85963
10497	41.98400	907.14313	1420.87061	76.09342	983.20435	1355.85852	259.07886	951.80597	1337.57483	-114.83440	1035.23303	1291.38147	67.21732	981.93335	1143.21912	309.02048	1003.80457	1041.58899	314.23627	923.35205	1025.51416	248.19678	957.70422	912.64288	330.92480	1035.32861	822.07782	297.72305	967.29706	806.68506	317.90686	1070.59290	745.14996	314.46890	945.14215	1110.30005	-130.88972	949.14838	1029.27832	-141.72928	923.24872	1004.62427	-44.15797	954.18762	880.98193	-111.15701	1039.92615	817.94641	-137.93529	1007.92883	795.06354	-77.88161	1048.40381	751.06201	-163.74847
10498	41.98800	907.10590	1420.89221	76.12666	983.32349	1355.84741	259.03046	951.56757	1337.63660	-114.86180	1035.12427	1291.35034	67.10167	982.03619	1143.21460	308.97827	1003.87549	1041.57300	314.18298	923.35303	1025.52966	248.22842	957.76129	912.64215	330.92697	1035.33716	822.06476	297.62857	967.32867	806.68188	317.87833	1070.61670	745.13397	314.31345	944.51715	1110.40332	-131.00018	948.52582	1029.49304	-141.77075	922.52692	1004.82880	-44.32835	954.31531	881.27655	-111.18731	1040.48181	818.87592	-137.90251	1008.57544	795.82568	-77.75490	1049.36169	752.01154	-163.64102
10499	41.99200	907.05878	1420.91650	76.14738	983.43744	1355.83667	258.98715	951.31964	1337.70227	-114.88636	1035.01318	1291.32129	66.98465	982.13293	1143.19849	308.94189	1003.94617	1041.55713	314.13028	923.34631	1025.54395	248.26955	957.82037	912.64270	330.92935	1035.34583	822.05151	297.53833	967.36255	806.67828	317.85416	1070.63574	745.11908	314.16208	943.88635	1110.51941	-131.11693	947.91974	1029.71301	-141.81020	921.91608	1004.99939	-44.45945	954.45599	881.58624	-111.21712	1041.03333	819.80518	-137.87350	1009.25061	796.64844	-77.65459	1050.33276	752.99805	-163.54976
10500	41.99600	907.00623	1420.94019	76.18217	983.55493	1355.82275	258.93552	951.05902	1337.77441	-114.90297	1034.89966	1291.28479	66.86858	982.21936	1143.18823	308.90436	1004.01508	1041.53894	314.08463	923.32507	1025.56531	248.30304	957.87579	912.64069	330.93143	1035.35327	822.03479	297.44434	967.39117	806.67407	317.83258	1070.64771	745.11859	314.01575	943.26123	1110.63196	-131.22290	947.34583	1029.92505	-141.85274	921.32819	1005.15387	-44.59277	954.61481	881.90289	-111.24116	1041.63843	820.77374	-137.84831	1009.95233	797.49536	-77.59064	1051.32129	754.00067	-163.42572
10501	42.00000	906.95959	1420.96350	76.21988	983.67419	1355.80151	258.88779	950.78387	1337.84656	-114.92023	1034.78552	1291.25598	66.76038	982.32550	1143.17932	308.87619	1004.07788	1041.51953	314.03876	923.31366	1025.57825	248.34492	957.92474	912.63000	330.93460	1035.35645	822.01843	297.34970	967.41534	806.66174	317.81226	1070.65881	745.10901	313.87424	942.65375	1110.73535	-131.32639	946.44916	1030.06738	-141.74049	920.77698	1005.30896	-44.71318	954.79169	882.24072	-111.26324	1042.26196	821.76642	-137.81133	1010.69281	798.35559	-77.51607	1052.32751	755.05951	-163.29294
10502	42.00400	906.90112	1420.97815	76.25217	983.79602	1355.77832	258.84100	950.49976	1337.92212	-114.93498	1034.67444	1291.22913	66.65002	982.43292	1143.18115	308.86542	1004.14124	1041.49609	313.99261	923.30133	1025.58374	248.38966	957.97491	912.62067	330.93756	1035.35913	821.99988	297.25571	967.44318	806.64673	317.78964	1070.67444	745.10150	313.72830	942.05780	1110.83618	-131.42365	945.09253	1030.15405	-141.46231	920.20581	1005.47363	-44.84846	954.98547	882.59253	-111.27993	1042.87256	822.77753	-137.77054	1011.49988	799.21472	-77.39606	1053.39270	756.10150	-163.16309
10503	42.00800	906.84192	1420.99268	76.29684	983.91895	1355.75085	258.79880	950.20752	1338.00000	-114.94547	1034.56165	1291.20605	66.53156	982.53827	1143.17017	308.83853	1004.20740	1041.47852	313.94263	923.30255	1025.57922	248.41406	958.02844	912.61560	330.94034	1035.35840	821.97974	297.16397	967.46533	806.62848	317.76447	1070.69312	745.09521	313.58350	941.47852	1110.94312	-131.51746	944.25220	1030.38916	-141.43399	919.59515	1005.65973	-44.99929	955.20569	882.94647	-111.29549	1043.51038	823.82007	-137.72755	1012.34033	800.11658	-77.26328	1054.43860	757.19580	-163.01324
10504	42.01200	906.78088	1421.01160	76.35046	984.03455	1355.72400	258.75549	949.91644	1338.08630	-114.95940	1034.44226	1291.18433	66.41795	982.63586	1143.15991	308.81232	1004.26636	1041.45935	313.89218	923.29266	1025.58228	248.44849	958.07275	912.60364	330.94168	1035.35388	821.96271	297.07623	967.48242	806.60767	317.74341	1070.70972	745.08008	313.43860	940.89459	1111.05237	-131.61372	943.55243	1030.64587	-141.45869	918.97485	1005.83197	-45.17107	955.42670	883.31049	-111.31543	1044.15515	824.86456	-137.69881	1013.18884	801.06714	-77.18111	1055.50061	758.31146	-162.89017
10505	42.01600	906.71381	1421.03076	76.41266	984.14911	1355.69604	258.72507	949.62762	1338.17603	-114.97018	1034.31152	1291.16418	66.29935	982.72607	1143.13379	308.78186	1004.31989	1041.43640	313.84317	923.29028	1025.57959	248.49301	958.11511	912.58771	330.94586	1035.34839	821.93610	296.98724	967.50049	806.59070	317.72946	1070.71753	745.06696	313.29776	940.31671	1111.16248	-131.70564	942.91077	1030.88806	-141.48885	918.38580	1005.99799	-45.33623	955.65625	883.70020	-111.34064	1044.82031	825.94489	-137.67592	1014.06573	802.05408	-77.14264	1056.62012	759.42517	-162.77489
